G04 (created by PCBNEW-RS274X (2010-05-05 BZR 2356)-stable) date Mon 25 Jun 2012 11:20:18 AM CEST*
G01*
G70*
G90*
%MOIN*%
G04 Gerber Fmt 3.4, Leading zero omitted, Abs format*
%FSLAX34Y34*%
G04 APERTURE LIST*
%ADD10C,0.000400*%
%ADD11C,0.015000*%
%ADD12C,0.177500*%
%ADD13R,0.085700X0.051500*%
%ADD14R,0.051500X0.085700*%
%ADD15R,0.051500X0.118400*%
%ADD16R,0.130000X0.160000*%
%ADD17R,0.050000X0.051000*%
%ADD18R,0.051000X0.050000*%
%ADD19R,0.080000X0.100000*%
%ADD20R,0.040000X0.050000*%
%ADD21R,0.080000X0.080000*%
%ADD22C,0.080000*%
%ADD23R,0.059400X0.098700*%
%ADD24C,0.059000*%
%ADD25C,0.070000*%
%ADD26C,0.118400*%
%ADD27C,0.079100*%
G04 APERTURE END LIST*
G54D10*
G54D11*
X74600Y-23250D02*
X74600Y-25250D01*
X94300Y-23250D02*
X74600Y-23250D01*
X94300Y-50825D02*
X94300Y-23250D01*
X92325Y-50825D02*
X94300Y-50825D01*
X74600Y-25225D02*
X74600Y-50825D01*
X74600Y-50825D02*
X92325Y-50825D01*
G54D12*
X92625Y-24925D03*
X76274Y-49125D03*
G54D13*
X83274Y-40165D03*
X83274Y-39665D03*
X83274Y-39165D03*
G54D14*
X82461Y-38852D03*
G54D13*
X81648Y-39165D03*
X81648Y-39665D03*
X81648Y-40165D03*
G54D15*
X82461Y-40315D03*
G54D16*
X87804Y-26811D03*
X90504Y-26811D03*
G54D17*
X85874Y-29751D03*
X85874Y-29161D03*
X86524Y-29161D03*
X86524Y-29751D03*
G54D18*
X85000Y-37539D03*
X84410Y-37539D03*
G54D17*
X80728Y-39193D03*
X80728Y-38603D03*
X80098Y-39193D03*
X80098Y-38603D03*
X83420Y-33205D03*
X83420Y-33795D03*
G54D18*
X82736Y-36142D03*
X83326Y-36142D03*
G54D19*
X89193Y-25256D03*
X90493Y-25256D03*
X89193Y-24213D03*
X90493Y-24213D03*
G54D20*
X87479Y-25402D03*
X88229Y-25402D03*
X87479Y-24402D03*
X87854Y-25402D03*
X88229Y-24402D03*
G54D21*
X86200Y-30840D03*
G54D22*
X86200Y-31840D03*
X86200Y-32840D03*
X86200Y-33840D03*
X86200Y-34840D03*
G54D23*
X86240Y-47933D03*
X86240Y-49901D03*
X84862Y-47933D03*
X84862Y-49901D03*
G54D24*
X84508Y-39390D03*
X84508Y-39890D03*
X84508Y-38890D03*
G54D18*
X85965Y-24055D03*
X86555Y-24055D03*
X85965Y-24665D03*
X86555Y-24665D03*
G54D22*
X78690Y-23850D03*
X78690Y-24850D03*
X78690Y-25850D03*
X78690Y-26850D03*
X78690Y-27850D03*
X78690Y-28850D03*
X78690Y-29850D03*
X78690Y-30850D03*
X78690Y-31850D03*
X78690Y-32850D03*
X78690Y-33850D03*
X78690Y-34850D03*
X84690Y-34850D03*
X84690Y-33850D03*
X84690Y-32850D03*
X84690Y-31850D03*
X84690Y-30850D03*
X84690Y-29850D03*
X84690Y-28850D03*
X84690Y-27850D03*
X84690Y-26850D03*
X84690Y-25850D03*
X84690Y-24850D03*
X84690Y-23850D03*
G54D25*
X83528Y-36983D03*
X82528Y-36983D03*
X81528Y-36983D03*
X80528Y-36983D03*
G54D18*
X79548Y-25906D03*
X80138Y-25906D03*
X79548Y-26535D03*
X80138Y-26535D03*
X79548Y-27795D03*
X80138Y-27795D03*
X79548Y-27165D03*
X80138Y-27165D03*
G54D17*
X79547Y-28642D03*
X79547Y-29232D03*
G54D18*
X79548Y-31457D03*
X80138Y-31457D03*
X83111Y-28071D03*
X83701Y-28071D03*
X83111Y-27343D03*
X83701Y-27343D03*
X83111Y-25925D03*
X83701Y-25925D03*
X83111Y-26634D03*
X83701Y-26634D03*
X79548Y-32854D03*
X80138Y-32854D03*
X79548Y-32224D03*
X80138Y-32224D03*
G54D26*
X76614Y-23937D03*
X76624Y-25308D03*
X76614Y-26693D03*
X76614Y-28071D03*
X76624Y-29442D03*
X76614Y-30827D03*
X76614Y-32205D03*
X76624Y-33576D03*
X76614Y-34961D03*
X76614Y-44606D03*
X76624Y-45977D03*
X76614Y-47362D03*
X76614Y-40472D03*
X76624Y-41843D03*
X76614Y-43228D03*
X76614Y-36339D03*
X76624Y-37710D03*
X76614Y-39095D03*
G54D27*
X90580Y-29004D03*
X90580Y-49476D03*
M02*
