M48
;DRILL file {PCBnew (2010-05-05 BZR 2356)-stable} date Mon 25 Jun 2012 11:20:16 AM CEST
;FORMAT={-.-/ absolute / inch / decimal}
R,T
VER,1
FMAT,2
INCH,TZ
TCST,OFF
ICI,OFF
ATC,ON
T1C0.021
T2C0.024
T3C0.028
T4C0.031
T5C0.039
T6C0.059
T7C0.138
%
M47
G05
M72
T1
X8.451Y-3.889
X8.451Y-3.939
X8.451Y-3.989
T2
X7.915Y-3.732
X7.955Y-3.512
X7.955Y-3.689
X7.955Y-3.921
X7.990Y-2.959
X8.006Y-3.514
X8.014Y-3.254
X8.043Y-3.134
X8.055Y-2.748
X8.061Y-3.974
X8.065Y-3.514
X8.073Y-3.041
X8.240Y-3.065
X8.242Y-3.577
X8.325Y-4.063
X8.526Y-3.545
X8.530Y-3.793
X8.549Y-4.837
X8.557Y-2.433
X8.630Y-2.874
X8.787Y-2.490
X8.876Y-3.169
X8.986Y-2.468
T3
X8.053Y-3.698
X8.153Y-3.698
X8.253Y-3.698
X8.353Y-3.698
T4
X9.058Y-2.900
X9.058Y-4.948
T5
X7.869Y-2.385
X7.869Y-2.485
X7.869Y-2.585
X7.869Y-2.685
X7.869Y-2.785
X7.869Y-2.885
X7.869Y-2.985
X7.869Y-3.085
X7.869Y-3.185
X7.869Y-3.285
X7.869Y-3.385
X7.869Y-3.485
X8.469Y-2.385
X8.469Y-2.485
X8.469Y-2.585
X8.469Y-2.685
X8.469Y-2.785
X8.469Y-2.885
X8.469Y-2.985
X8.469Y-3.085
X8.469Y-3.185
X8.469Y-3.285
X8.469Y-3.385
X8.469Y-3.485
X8.620Y-3.084
X8.620Y-3.184
X8.620Y-3.284
X8.620Y-3.384
X8.620Y-3.484
T6
X7.661Y-2.394
X7.661Y-2.669
X7.661Y-2.807
X7.661Y-3.083
X7.661Y-3.220
X7.661Y-3.496
X7.661Y-3.634
X7.661Y-3.909
X7.661Y-4.047
X7.661Y-4.323
X7.661Y-4.461
X7.661Y-4.736
X7.662Y-2.531
X7.662Y-2.944
X7.662Y-3.358
X7.662Y-3.771
X7.662Y-4.184
X7.662Y-4.598
T7
X7.627Y-4.912
X9.262Y-2.492
T0
M30
